<?xml version="1.0" standalone="no"?>
<!DOCTYPE svg PUBLIC "-//W3C//DTD SVG 20010904//EN"
 "http://www.w3.org/TR/2001/REC-SVG-20010904/DTD/svg10.dtd">
<svg version="1.0" xmlns="http://www.w3.org/2000/svg"
 width="768.000000pt" height="768.000000pt" viewBox="0 0 768.000000 768.000000"
 preserveAspectRatio="xMidYMid meet">
<metadata>
Created by potrace 1.14, written by Peter Selinger 2001-2017
</metadata>
<g transform="translate(0.000000,768.000000) scale(0.100000,-0.100000)"
fill="#000000" stroke="none">
<path d="M3438 7005 c-2 -2 -21 -6 -43 -9 -85 -14 -101 -18 -165 -43 -36 -14
-69 -29 -75 -33 -5 -4 -41 -24 -78 -44 -37 -20 -82 -45 -100 -55 -18 -10 -68
-37 -112 -61 -44 -23 -93 -50 -110 -60 -16 -10 -61 -34 -100 -55 -38 -21 -92
-50 -120 -65 -176 -97 -352 -193 -430 -235 -49 -26 -115 -63 -146 -81 -31 -19
-59 -34 -62 -34 -3 0 -34 -16 -69 -36 -34 -20 -106 -59 -158 -87 -52 -27 -99
-53 -105 -57 -5 -4 -46 -27 -90 -50 -44 -24 -93 -50 -110 -60 -16 -9 -70 -38
-120 -65 -49 -26 -94 -51 -100 -55 -5 -4 -55 -31 -110 -60 -55 -29 -104 -56
-110 -60 -5 -4 -50 -29 -100 -55 -49 -27 -104 -56 -122 -66 -18 -10 -63 -35
-100 -55 -37 -20 -94 -52 -126 -70 -32 -19 -60 -34 -62 -34 -20 0 -260 -148
-293 -181 -125 -122 -157 -338 -75 -502 46 -90 100 -131 364 -276 134 -74 260
-144 279 -154 19 -11 64 -36 100 -55 36 -20 110 -61 165 -93 l100 -56 1 -869
c0 -478 4 -894 8 -925 22 -184 130 -391 263 -509 83 -73 108 -88 408 -250 44
-23 95 -52 115 -63 19 -11 67 -36 105 -57 117 -63 188 -101 230 -125 41 -23
86 -47 230 -125 44 -24 100 -54 125 -68 631 -346 686 -374 770 -396 89 -24
271 -32 368 -16 69 11 201 52 227 70 6 4 46 26 90 50 44 24 105 57 135 73 80
44 170 93 210 115 79 41 222 119 329 179 62 35 115 63 117 63 2 0 93 50 203
110 110 61 202 110 206 110 3 0 18 8 33 19 22 15 211 119 352 193 101 53 221
162 289 261 48 70 98 182 122 272 22 79 22 91 23 983 l2 903 30 18 c16 10 49
29 74 43 332 185 556 311 561 314 4 2 7 -466 7 -1039 1 -573 3 -1054 5 -1069
7 -45 47 -142 70 -171 12 -14 29 -34 37 -44 44 -54 149 -115 220 -128 64 -12
169 -7 222 11 140 46 251 167 283 309 13 55 13 2394 1 2450 -11 50 -64 150
-98 186 -42 44 -74 66 -173 119 -44 24 -100 54 -125 68 -43 23 -93 51 -220
119 -30 16 -71 39 -90 50 -19 11 -80 43 -135 73 -55 29 -104 56 -110 60 -5 4
-50 29 -100 55 -49 27 -135 73 -190 103 -55 30 -134 73 -175 95 -41 23 -93 51
-115 63 -22 13 -62 35 -90 50 -27 14 -74 39 -102 55 -177 97 -388 212 -573
312 -102 55 -216 117 -253 138 -38 22 -70 39 -72 39 -2 0 -30 15 -62 34 -32
18 -92 51 -133 73 -129 69 -211 114 -348 190 -73 40 -134 73 -136 73 -3 0 -35
17 -73 38 -37 22 -93 52 -123 69 -30 17 -73 40 -95 53 -53 30 -157 69 -219 82
-47 9 -271 20 -278 13z m166 -889 c105 -58 158 -87 631 -341 253 -136 480
-259 505 -273 25 -14 81 -44 125 -67 44 -23 159 -85 255 -137 96 -52 220 -119
275 -148 55 -29 105 -56 110 -60 6 -4 60 -33 120 -65 164 -86 157 -77 83 -118
-70 -39 -135 -74 -253 -137 -44 -24 -118 -64 -165 -90 -47 -26 -134 -73 -195
-105 -60 -32 -114 -61 -120 -65 -5 -4 -46 -26 -90 -50 -44 -24 -102 -55 -130
-70 -27 -15 -77 -42 -110 -60 -33 -18 -82 -45 -110 -60 -27 -15 -86 -47 -130
-70 -44 -24 -96 -52 -115 -63 -19 -11 -53 -29 -75 -40 -22 -11 -69 -36 -105
-57 -36 -20 -114 -63 -175 -95 -60 -32 -114 -61 -120 -65 -5 -4 -55 -31 -110
-60 -55 -29 -116 -62 -135 -73 l-35 -19 -150 82 c-82 45 -175 96 -205 112 -30
17 -89 49 -130 71 -41 22 -88 47 -105 57 -16 10 -64 36 -105 58 -41 22 -196
106 -345 187 -148 81 -308 168 -354 192 -47 25 -102 56 -123 69 -20 13 -40 24
-42 24 -3 0 -96 50 -208 111 -112 62 -230 126 -263 144 -148 79 -187 102 -187
110 0 4 36 27 79 50 132 70 235 126 306 166 38 22 70 39 73 39 3 0 81 42 259
140 28 15 86 46 130 70 44 23 123 66 175 95 90 49 177 97 318 172 144 77 189
101 232 125 25 14 81 44 125 68 44 24 103 55 130 70 28 15 77 42 110 60 33 18
89 48 125 68 102 57 144 79 154 81 5 0 37 -14 70 -33z m-1556 -2532 c76 -42
166 -93 202 -112 36 -19 70 -38 75 -42 6 -4 42 -24 80 -45 39 -21 167 -92 285
-158 118 -66 240 -133 270 -150 30 -16 90 -50 134 -74 170 -97 282 -125 471
-119 195 7 251 27 538 188 87 49 182 102 210 117 29 16 111 61 182 101 72 40
159 89 195 108 36 19 94 51 130 72 81 46 150 85 215 120 28 15 67 37 88 48 21
12 39 22 41 22 2 0 4 -278 3 -618 l0 -619 -61 -32 c-151 -82 -214 -116 -261
-141 -27 -15 -90 -49 -140 -75 -49 -26 -103 -56 -120 -65 -16 -9 -68 -38 -115
-63 -47 -25 -105 -56 -130 -69 -25 -14 -76 -42 -115 -63 -78 -42 -181 -98
-265 -142 -114 -62 -238 -128 -324 -175 -49 -26 -93 -48 -99 -48 -8 0 -249
124 -272 140 -5 4 -59 33 -120 65 -60 31 -148 79 -195 105 -47 26 -130 71
-185 100 -55 29 -201 108 -325 175 -124 67 -232 124 -240 128 -8 4 -37 20 -65
35 -27 15 -86 47 -130 71 -44 24 -84 48 -90 53 -9 8 -16 1238 -7 1238 2 0 65
-34 140 -76z"/>
</g>
</svg>
